<svg fill="none" height="32" viewBox="0 0 32 32" width="32" xmlns="http://www.w3.org/2000/svg"><path d="m5.39832 4.67964.08435-.81566.79849-.10153 2.29891 1.63488-.2134 1.10029-1.21063.37915z" fill="#00d26a"/><path d="m8.70516 8.81318-1.54915-1.93642 1.42402-1.47942 2.02617 1.44089-.5861 1.25845z" fill="#468cfb"/><path d="m6.29293 3.77084-.88563.92007-1.53622-1.92025c-.21737-.27171.12456-.63355.40812-.4319z" fill="#f9c23c"/><path d="m10.5541 6.80109 2.6553 1.88834c1.0827 2.64687-1.0641 3.04477-2.2728 2.91287l-2.27126-2.83902z" fill="#8d65c5"/><path d="m11.5 6.78135c1.2187-1.60294 6.658-2.52902 3.608.43098-1.81 1.76-1.0536 3.63147-3.3736 4.63147-3.90628 1.4843-5.0469-1.7186-4.64065-2.12496.40625-.40634 1.31686.46356 2.42185 0 .6868-.28811.7657-1.33455 1.9844-2.93749z" fill="#5092ff"/><path d="m5.78353 23.3498 8.61997-1.88c.149-.036.2995-.0769.4511-.1224-3.5598 4.0811-4.0066 8.637-4.0066 8.637h15.33c2.14 0 3.82-2.0821 3.62-4.2221-.598-6.3188-2.7853-17.95179-10.8287-18.02961-1.6075-1.22458-3.4675-1.52115-4.5858-.40289-3.4178 3.4178-6.62605 6.9759-8.79448 9.3808-.6739.7474-1.24738 1.3834-1.69549 1.8692-1.89 2.0489-1.45 3.73.22 4.58.51.26 1.11.31 1.67.19z" fill="#efd5ff"/><path d="m29.9062 16.9688c0-3.6563-2.3229-4.2084-3.2187-4.1876.1979.7917.2812 3.3-.9688 7s-.2187 8.4688.4688 10.2188c2.6719 0 3.7187-.3438 3.7187-2.2812z" fill="#ff6dc6"/><path d="m27.375 17.2812c1.0625-4-1.875-8.1562-4.1875-8.1562.8125 1.8542 1.3125 6.2188 0 8.3438-1.4957 2.4216-1.7344 9.0312-.9844 12.5312h4.75c-1.7-4.825-.6406-8.7188.4219-12.7188z" fill="#c790f1"/><path d="m14.9062 21.2813c7.7188-6.4063 3.6563-11.9688-1.4374-13.0312 7.1874-5.46884 8.8645 5.4166 7.5937 9.1249-2.1563 2.3125-6.1563 3.9063-6.1563 3.9063z" fill="#bca4eb"/><path d="m22.7969 29.9844h-6.625c-1.59-6.76 3.7962-11.2621 4.1562-16.3021.4-5.72997-3.74-6.78997-3.74-6.78997-1.32.33 1.01 1.24999-1.58 1.24999l-.68-1.44999-.6875-1.12993c1.64-.45 3.8422-.82697 6.3594.40632 3.0994 1.5185 5.7531 5.48808 4.6875 9.56248-1.0625 4.0626-3.5781 6.9921-1.8906 14.4532z" fill="#5092ff"/><path d="m22.7969 29.9844h-1.4132c-.3313-1.0009-.6079-2.6085-.5711-4.4844.0568-2.8982.682-4.5047 2.1575-8.2961.1472-.3783.303-.7786.4674-1.2039 1.45-3.75-.7083-7.5-1.6875-8.75l.1645.02351c2.1584 1.93495 3.6082 5.06419 2.773 8.25769-.2565.9809-.5977 1.8956-.9441 2.8241-1.0881 2.9172-2.2266 5.9693-.9465 11.6291z" fill="#8d65c5"/><path d="m27.375 17.2812c.5295-1.9932.0657-4.0252-.8191-5.5624h-.0559c.0499.2821.1154.5813.1841.8953.3042 1.3898.672 3.0703.0347 4.8547l-.0038.0105c-.8242 2.3077-2.4643 6.8997-2.0587 9.4895.2145 1.37.6232 2.4797.8663 3.0312h1.4305c-1.6859-4.7851-.6579-8.6542.3955-12.6194z" fill="#8d65c5"/><path d="m15.578 9.01565c-1.8592.24997-2.3842-.70315-2.4999-2.45315-.1156-1.75-.0875-2.26123-.0875-2.26123 0-.34.41-.51.65-.27 0 0 3.2813 2.59373 3.4219 3.53123s-.7096 1.34897-1.4845 1.45315z" fill="#efd5ff"/><g fill="#1c1c1c"><path d="m12 12c-.5523 0-1 .4477-1 1v1c0 .5523.4477 1 1 1s1-.4477 1-1v-1c0-.5523-.4477-1-1-1z"/><path d="m4.91055 20.3011c-.3.3-.8.3-1.1 0l1.1-1.1001c.3.31.3.8 0 1.1001z"/><path d="m8.68666 22.7166-1.86378.4065c.7745-.3012 1.26025-1.1189 1.11368-1.9719-.04787-.2786.13918-.5432.41778-.5911s.54326.1392.59114.4178c.10578.6156.00226 1.2196-.25882 1.7387z"/></g></svg>